<svg width="145" height="42" viewBox="0 0 145 42" fill="none" xmlns="http://www.w3.org/2000/svg">
<path d="M28.6773 26.0883L34.0741 9.7054H39.8177L31.9154 31.061H25.3622L17.4984 9.7054H23.2806L28.6773 26.0883Z" fill="url(#paint0_linear_212_2413)"/>
<path d="M55.5886 31.4079C53.5327 31.4079 51.6824 30.9582 50.0377 30.0588C48.393 29.1336 47.0952 27.8358 46.1443 26.1654C45.2192 24.495 44.7566 22.5676 44.7566 20.3832C44.7566 18.1988 45.232 16.2714 46.1829 14.601C47.1594 12.9306 48.4829 11.6457 50.1533 10.7462C51.8237 9.82105 53.6869 9.35847 55.7428 9.35847C57.7987 9.35847 59.6618 9.82105 61.3323 10.7462C63.0027 11.6457 64.3133 12.9306 65.2641 14.601C66.2407 16.2714 66.729 18.1988 66.729 20.3832C66.729 22.5676 66.2278 24.495 65.2256 26.1654C64.2491 27.8358 62.9127 29.1336 61.2166 30.0588C59.5462 30.9582 57.6702 31.4079 55.5886 31.4079ZM55.5886 26.7051C56.5651 26.7051 57.4774 26.4738 58.3255 26.0112C59.1993 25.5229 59.8931 24.8034 60.4071 23.8525C60.9211 22.9017 61.1781 21.7452 61.1781 20.3832C61.1781 18.353 60.6384 16.7982 59.559 15.7189C58.5054 14.6139 57.2076 14.0613 55.6657 14.0613C54.1238 14.0613 52.826 14.6139 51.7723 15.7189C50.7444 16.7982 50.2304 18.353 50.2304 20.3832C50.2304 22.4134 50.7315 23.981 51.7338 25.0861C52.7617 26.1654 54.0467 26.7051 55.5886 26.7051Z" fill="url(#paint1_linear_212_2413)"/>
<path d="M66.2161 20.3832C66.2161 18.1731 66.6658 16.2457 67.5653 14.601C68.4647 12.9306 69.7111 11.6457 71.3044 10.7462C72.8978 9.82105 74.7224 9.35847 76.7783 9.35847C79.4252 9.35847 81.6096 10.0266 83.3314 11.363C85.0789 12.6736 86.2482 14.5239 86.8393 16.9139H81.0185C80.7102 15.9887 80.1833 15.2692 79.4381 14.7552C78.7185 14.2155 77.8191 13.9457 76.7397 13.9457C75.1978 13.9457 73.9771 14.5111 73.0777 15.6418C72.1782 16.7468 71.7285 18.3273 71.7285 20.3832C71.7285 22.4134 72.1782 23.9939 73.0777 25.1246C73.9771 26.2297 75.1978 26.7822 76.7397 26.7822C78.9241 26.7822 80.3504 25.8056 81.0185 23.8525H86.8393C86.2482 26.1654 85.0789 28.0029 83.3314 29.3649C81.5839 30.7269 79.3995 31.4079 76.7783 31.4079C74.7224 31.4079 72.8978 30.9582 71.3044 30.0588C69.7111 29.1336 68.4647 27.8487 67.5653 26.204C66.6658 24.5335 66.2161 22.5933 66.2161 20.3832Z" fill="url(#paint2_linear_212_2413)"/>
<path d="M89.728 7.16123C88.7771 7.16123 87.9805 6.8657 87.338 6.27463C86.7212 5.65786 86.4128 4.89975 86.4128 4.00029C86.4128 3.10084 86.7212 2.35558 87.338 1.76451C87.9805 1.14774 88.7771 0.839355 89.728 0.839355C90.6788 0.839355 91.4626 1.14774 92.0794 1.76451C92.7219 2.35558 93.0431 3.10084 93.0431 4.00029C93.0431 4.89975 92.7219 5.65786 92.0794 6.27463C91.4626 6.8657 90.6788 7.16123 89.728 7.16123ZM92.3878 9.7054V31.061H86.9911V9.7054H92.3878Z" fill="url(#paint3_linear_212_2413)"/>
<path d="M101.104 14.1384V24.4693C101.104 25.1889 101.271 25.7157 101.605 26.0498C101.965 26.3582 102.556 26.5123 103.378 26.5123H105.884V31.061H102.492C97.943 31.061 95.6686 28.8509 95.6686 24.4307V14.1384H93.1245V9.7054H95.6686V4.42432H101.104V9.7054H105.884V14.1384H101.104Z" fill="url(#paint4_linear_212_2413)"/>
<path d="M127.112 9.7054L113.89 41.1606H108.146L112.772 30.5213L104.215 9.7054H110.267L115.779 24.6235L121.368 9.7054H127.112Z" fill="url(#paint5_linear_212_2413)"/>
<path d="M47.3062 2.73942L41.5656 31.2399H36.1736L41.9142 2.73942H47.3062Z" fill="url(#paint6_linear_212_2413)"/>
<path d="M8.40347 27.0044L0 18.3696L8.40347 9.73486H15.1879L6.78445 18.3696L15.1879 27.0044H8.40347Z" fill="#2B35EE"/>
<path d="M136.021 27.0044L144.425 18.3696L136.021 9.73486H129.237L137.64 18.3696L129.237 27.0044H136.021Z" fill="#0BF59C"/>
<defs>
<linearGradient id="paint0_linear_212_2413" x1="24.1446" y1="21.0937" x2="127.112" y2="21.0937" gradientUnits="userSpaceOnUse">
<stop stop-color="#2349F1"/>
<stop offset="1" stop-color="#0BF59C"/>
</linearGradient>
<linearGradient id="paint1_linear_212_2413" x1="24.1446" y1="21.0937" x2="127.112" y2="21.0937" gradientUnits="userSpaceOnUse">
<stop stop-color="#2349F1"/>
<stop offset="1" stop-color="#0BF59C"/>
</linearGradient>
<linearGradient id="paint2_linear_212_2413" x1="24.1446" y1="21.0937" x2="127.112" y2="21.0937" gradientUnits="userSpaceOnUse">
<stop stop-color="#2349F1"/>
<stop offset="1" stop-color="#0BF59C"/>
</linearGradient>
<linearGradient id="paint3_linear_212_2413" x1="24.1446" y1="21.0937" x2="127.112" y2="21.0937" gradientUnits="userSpaceOnUse">
<stop stop-color="#2349F1"/>
<stop offset="1" stop-color="#0BF59C"/>
</linearGradient>
<linearGradient id="paint4_linear_212_2413" x1="24.1446" y1="21.0937" x2="127.112" y2="21.0937" gradientUnits="userSpaceOnUse">
<stop stop-color="#2349F1"/>
<stop offset="1" stop-color="#0BF59C"/>
</linearGradient>
<linearGradient id="paint5_linear_212_2413" x1="24.1446" y1="21.0937" x2="127.112" y2="21.0937" gradientUnits="userSpaceOnUse">
<stop stop-color="#2349F1"/>
<stop offset="1" stop-color="#0BF59C"/>
</linearGradient>
<linearGradient id="paint6_linear_212_2413" x1="24.1446" y1="21.0937" x2="127.112" y2="21.0937" gradientUnits="userSpaceOnUse">
<stop stop-color="#2349F1"/>
<stop offset="1" stop-color="#0BF59C"/>
</linearGradient>
</defs>
</svg>
